<?xml version="1.0" encoding="UTF-8"?>
<svg width="23px" height="22px" viewBox="0 0 23 22" version="1.1" xmlns="http://www.w3.org/2000/svg" xmlns:xlink="http://www.w3.org/1999/xlink">
    <g id="Alle-Seiten" stroke="none" stroke-width="1" fill="none" fill-rule="evenodd">
        <g id="Kalender_1280_V1" transform="translate(-48, -224)" fill="#000000" fill-rule="nonzero">
            <g id="calendar-24" transform="translate(48, 224)">
                <path d="M20,2 L18,2 L18,1.5 C18,0.671 17.328,0 16.5,0 C15.672,0 15,0.671 15,1.5 L15,2 L8,2 L8,1.5 C8,0.671 7.329,0 6.5,0 C5.671,0 5,0.671 5,1.5 L5,2 L3,2 C1.343,2 0,3.387 0,5.097 L0,19.001 C0,20.657 1.343,22 3,22 L20,22 C21.657,22 23,20.657 23,19.001 L23,5.097 C23,3.387 21.657,2 20,2 Z M20,19.001 L3,19.001 L3,5.001 L5,5.001 L5,5.501 C5,6.329 5.671,7 6.5,7 C7.329,7 8,6.329 8,5.5 L8,5 L15,5 L15,5.5 C15,6.329 15.672,7 16.5,7 C17.328,7 18,6.329 18,5.5 L18,5 L20,5 L20,19.001 Z M5,12.001 L8,12.001 L8,9 L5,9 L5,12.001 Z M5,17 L8,17 L8,14 L5,14 L5,17 Z M10,17 L13,17 L13,14 L10,14 L10,17 Z M15,12.001 L18,12.001 L18,9 L15,9 L15,12.001 Z M10,12.001 L13,12.001 L13,9 L10,9 L10,12.001 Z M15,17 L18,17 L18,14 L15,14 L15,17 Z" id="Shape"></path>
            </g>
        </g>
    </g>
</svg>