<?xml version="1.0" encoding="UTF-8"?>
<svg width="48px" height="48px" viewBox="0 0 48 48" version="1.1" xmlns="http://www.w3.org/2000/svg" xmlns:xlink="http://www.w3.org/1999/xlink">
    <title>nav-icons/duplicate</title>
    <g id="nav-icons/duplicate" stroke="none" stroke-width="1" fill="none" fill-rule="evenodd">
        <g id="Group" transform="translate(9.100000, 6.000000)" fill="#000000">
            <path d="M27.798,27 L20.8,27 L20.8,33.998 L7.8,33.998 L7.8,7.93373706 L27.798,7.93373706 L27.798,27 Z M27.798,29.172 L22.97,33.998 L22.8,33.998 L22.8,29 L27.798,29 L27.798,29.172 Z M29.8,6 L5.8,6 L5.8,36 L20.8,36 L22.8,36 L23.8,36 L29.8,30 L29.8,29 L29.8,27 L29.8,6 Z" id="Fill-2"></path>
            <path d="M24,0 L24,6 L22,6 L22,2 L2,2 L2,28 L6,28 L6,30 L0,30 L0,0 L24,0 Z" id="Combined-Shape" fill-rule="nonzero"></path>
        </g>
    </g>
</svg>